<?xml version="1.0" encoding="UTF-8" standalone="no"?><!DOCTYPE svg PUBLIC "-//W3C//DTD SVG 1.1//EN" "http://www.w3.org/Graphics/SVG/1.1/DTD/svg11.dtd"><svg width="100%" height="100%" viewBox="0 0 5225 5225" version="1.1" xmlns="http://www.w3.org/2000/svg" xmlns:xlink="http://www.w3.org/1999/xlink" xml:space="preserve" xmlns:serif="http://www.serif.com/" style="fill-rule:evenodd;clip-rule:evenodd;stroke-linejoin:round;stroke-miterlimit:2;"><g id="Fundo"><path d="M1074.084,0l3076.831,0l5.103,10.066l5.103,0.152l5.103,0.48c8.612,0.182 18.647,2.526 20.24,2.898c117.151,27.357 338.011,52.727 617.322,290.314c225.267,191.617 334.696,454.918 363.611,550.43c65.596,216.675 48.267,275.452 52.323,306.279c0.326,2.474 4.95,2.837 5.276,5.311l0,2893.14c-0.91,1.795 -5.093,0.835 -5.166,10.187c-2.116,269.312 -144.162,585.919 -355.321,795.253c-43.521,43.146 -297.47,294.901 -683.214,346.468c-116.314,15.549 -116.865,7.136 -126.935,8.616c-2.541,0.373 -2.953,5.027 -5.494,5.401l-2872.729,0c-2.555,-0.389 -2.843,-5.175 -5.398,-5.564c-28.405,-4.33 -165.108,12.881 -418.953,-91.889c-340.967,-140.728 -597.611,-440.755 -697.831,-772.637c-59.875,-198.277 -45.984,-263.611 -48.835,-285.533c-0.314,-2.411 -4.804,-2.787 -5.118,-5.199l0,-2898.242c0.317,-2.42 4.827,-2.792 5.144,-5.212c0.816,-6.233 -11.73,-216.938 133.094,-496.012c308.647,-594.757 915.444,-653.602 920.539,-653.19l5.103,-1.144l5.103,-0.797l5.103,-9.575Z" style="fill:#1b1b1c;"/><path d="M3084.545,1769.832c90.085,-0.561 142.27,-7.894 166.727,29.981c14.451,22.38 12.769,24.309 12.601,248.855c-0.636,851.312 12.774,859.437 -74.554,1039.802c-218.517,451.32 -1060.329,458.382 -1206.732,-141.812c-20.704,-84.879 -25.829,-105.887 -21.439,-1091.88c0.039,-8.669 0.374,-84.058 67.197,-85.02c105.892,-1.524 155.276,-7.411 176.259,45.163c10.827,27.127 1.922,819.701 5.278,958.408c11.016,455.258 541.457,506.153 730.126,243.718c105.364,-146.56 70.743,-277.376 75.41,-953.074c1.713,-248.045 -14.442,-281.233 69.127,-294.14Z" style="fill:#f4eee3;"/><path d="M3666.169,1366.651c352.171,-0.352 356.117,-3.071 386.068,20.932c49.274,39.489 38.587,54.812 40.271,314.11c3.821,588.458 0.116,1877.726 -0.353,2041.006c-0.385,133.827 -105.347,114.137 -252.485,114.175c-329.526,0.085 -331.85,0.87 -350.486,-13.862c-29.887,-23.626 -35.46,-143.316 8.239,-167.265c34.241,-18.766 387.202,-0.152 397.497,-10.462c5.585,-5.594 1.933,-742.396 2.883,-1688.06c0.383,-380.983 5.436,-381.213 -0.722,-413.733c-3.973,-20.983 -368.124,8.518 -402.981,-16.831c-13.867,-10.085 -30.773,-17.418 -25.765,-120.443c3.521,-72.427 73.043,-59.773 197.835,-59.565Z" style="fill:#f6794a;"/><path d="M1691.498,1366.696c71.012,8.442 64.6,42.478 64.736,110.468c0.179,89.403 -45.724,79.252 -125.992,79.384c-285.367,0.468 -299.837,-3.144 -302.651,6.82c-1.892,6.697 -0.805,2090.195 -0.661,2092.831c1.066,19.56 13.196,9.8 369.649,11.776c38.062,0.211 59.119,30.885 59.357,59.506c0.467,56.169 4.687,86.029 -15.172,110.783c-18.738,23.357 -24.859,18.261 -360.52,18.471c-121.502,0.076 -225.07,17.11 -244.927,-78.306c-6.097,-29.295 -1.64,-1064.008 -3.081,-2081.841c-0.348,-245.636 -9.186,-289.735 59.65,-320.454c20.85,-9.305 21.702,-10.252 499.613,-9.439Z" style="fill:#f6794a;"/><path d="M5224.995,4059.07l0,1165.925c-9.229,6.389 -10.56,0 -140.315,0l-1035.815,0c2.541,-0.373 2.953,-5.027 5.494,-5.401c10.07,-1.48 10.621,6.933 126.935,-8.616c385.744,-51.568 639.693,-303.323 683.214,-346.468c211.158,-209.334 353.204,-525.941 355.321,-795.253c0.073,-9.352 4.256,-8.392 5.166,-10.187Z"/><path d="M1176.135,5224.995l-1176.135,0c-7.938,-7.937 0,-10.177 0,-140.315l0,-1020.508c0.314,2.411 4.804,2.787 5.118,5.199c2.852,21.923 -11.04,87.256 48.835,285.533c100.221,331.882 356.864,631.909 697.831,772.637c253.845,104.77 390.548,87.559 418.953,91.889c2.555,0.389 2.843,5.175 5.398,5.564Z"/><path d="M1074.084,0l-5.103,9.575l-5.103,0.797l-5.103,1.144c-5.094,-0.412 -611.892,58.433 -920.539,653.19c-144.824,279.074 -132.278,489.779 -133.094,496.012c-0.317,2.42 -4.827,2.792 -5.144,5.212l0,-1165.93c9.23,-6.39 10.56,0 140.32,0l933.765,0Z"/><path d="M4150.916,0l1074.079,0c6.323,5.481 0,7.458 0,104.602l0,1061.328c-0.326,-2.474 -4.95,-2.837 -5.276,-5.311c-4.056,-30.827 13.273,-89.604 -52.323,-306.279c-28.915,-95.513 -138.344,-358.813 -363.611,-550.43c-279.31,-237.587 -500.171,-262.957 -617.322,-290.314c-1.593,-0.372 -11.628,-2.715 -20.24,-2.898l-5.103,-0.48l-5.103,-0.152l-5.103,-10.066Z"/></g></svg>